<mxfile host="app.diagrams.net" modified="2023-11-10T15:06:30.441Z" agent="Mozilla/5.0 (Windows NT 10.0; Win64; x64) AppleWebKit/537.36 (KHTML, like Gecko) Chrome/119.0.0.0 Safari/537.36" etag="C2ek97z4ph6gkpDbAdi0" version="22.1.0" type="github">
  <diagram name="Pagina-1" id="KD0p71NW7KmdiMC_3tap">
    <mxGraphModel dx="1548" dy="878" grid="1" gridSize="10" guides="1" tooltips="1" connect="1" arrows="1" fold="1" page="1" pageScale="1" pageWidth="827" pageHeight="1169" math="0" shadow="0">
      <root>
        <mxCell id="0" />
        <mxCell id="1" parent="0" />
        <mxCell id="zukYgAwYILHTxyN00kDu-1" value="&lt;h1 style=&quot;line-height: 0%;&quot;&gt;Online Social Network&lt;/h1&gt;" style="rounded=0;whiteSpace=wrap;html=1;fillColor=none;labelPosition=center;verticalLabelPosition=middle;align=center;verticalAlign=top;horizontal=1;labelBackgroundColor=none;strokeWidth=2;" parent="1" vertex="1">
          <mxGeometry x="441" y="159" width="800" height="773" as="geometry" />
        </mxCell>
        <mxCell id="zukYgAwYILHTxyN00kDu-37" value="&lt;h1 style=&quot;line-height: 0%;&quot;&gt;Trust Propagation Model&lt;/h1&gt;" style="rounded=0;whiteSpace=wrap;html=1;fillColor=none;labelPosition=center;verticalLabelPosition=middle;align=center;verticalAlign=top;horizontal=1;labelBackgroundColor=none;strokeWidth=2;" parent="1" vertex="1">
          <mxGeometry x="360" y="80" width="960" height="1680" as="geometry" />
        </mxCell>
        <mxCell id="zukYgAwYILHTxyN00kDu-3" value="&lt;h1 style=&quot;line-height: 0%;&quot;&gt;Ethereum Smart Contract&lt;/h1&gt;" style="rounded=0;whiteSpace=wrap;html=1;fillColor=none;labelPosition=center;verticalLabelPosition=middle;align=center;verticalAlign=top;horizontal=1;labelBackgroundColor=none;strokeWidth=2;" parent="1" vertex="1">
          <mxGeometry x="441" y="1002" width="800" height="678" as="geometry" />
        </mxCell>
        <mxCell id="zukYgAwYILHTxyN00kDu-9" style="rounded=0;orthogonalLoop=1;jettySize=auto;html=1;exitX=1;exitY=0.3333333333333333;exitDx=0;exitDy=0;exitPerimeter=0;entryX=0;entryY=0.5;entryDx=0;entryDy=0;strokeWidth=2;endArrow=none;endFill=0;" parent="1" source="zukYgAwYILHTxyN00kDu-4" target="zukYgAwYILHTxyN00kDu-8" edge="1">
          <mxGeometry relative="1" as="geometry" />
        </mxCell>
        <mxCell id="zukYgAwYILHTxyN00kDu-27" style="rounded=0;orthogonalLoop=1;jettySize=auto;html=1;exitX=1;exitY=0.3333333333333333;exitDx=0;exitDy=0;exitPerimeter=0;strokeWidth=2;endArrow=none;endFill=0;entryX=0;entryY=0.5;entryDx=0;entryDy=0;" parent="1" source="zukYgAwYILHTxyN00kDu-4" target="zukYgAwYILHTxyN00kDu-25" edge="1">
          <mxGeometry relative="1" as="geometry" />
        </mxCell>
        <mxCell id="zukYgAwYILHTxyN00kDu-34" style="rounded=0;orthogonalLoop=1;jettySize=auto;html=1;exitX=1;exitY=0.3333333333333333;exitDx=0;exitDy=0;exitPerimeter=0;entryX=0;entryY=0.5;entryDx=0;entryDy=0;endArrow=none;endFill=0;strokeWidth=2;" parent="1" source="zukYgAwYILHTxyN00kDu-4" target="zukYgAwYILHTxyN00kDu-28" edge="1">
          <mxGeometry relative="1" as="geometry" />
        </mxCell>
        <mxCell id="zukYgAwYILHTxyN00kDu-47" style="rounded=0;orthogonalLoop=1;jettySize=auto;html=1;exitX=1;exitY=0.3333333333333333;exitDx=0;exitDy=0;exitPerimeter=0;entryX=0;entryY=0.5;entryDx=0;entryDy=0;strokeWidth=2;endArrow=none;endFill=0;" parent="1" source="zukYgAwYILHTxyN00kDu-4" target="zukYgAwYILHTxyN00kDu-46" edge="1">
          <mxGeometry relative="1" as="geometry" />
        </mxCell>
        <mxCell id="zukYgAwYILHTxyN00kDu-52" style="rounded=0;orthogonalLoop=1;jettySize=auto;html=1;exitX=1;exitY=0.3333333333333333;exitDx=0;exitDy=0;exitPerimeter=0;entryX=0;entryY=0.5;entryDx=0;entryDy=0;strokeWidth=2;endArrow=none;endFill=0;" parent="1" source="zukYgAwYILHTxyN00kDu-4" target="zukYgAwYILHTxyN00kDu-51" edge="1">
          <mxGeometry relative="1" as="geometry" />
        </mxCell>
        <mxCell id="s4xfgdplAtvyBz_P0e0U-3" style="rounded=0;orthogonalLoop=1;jettySize=auto;html=1;exitX=1;exitY=0.3333333333333333;exitDx=0;exitDy=0;exitPerimeter=0;entryX=0;entryY=0.5;entryDx=0;entryDy=0;strokeWidth=2;endArrow=none;endFill=0;" edge="1" parent="1" source="zukYgAwYILHTxyN00kDu-4" target="zukYgAwYILHTxyN00kDu-54">
          <mxGeometry relative="1" as="geometry" />
        </mxCell>
        <mxCell id="s4xfgdplAtvyBz_P0e0U-4" style="rounded=0;orthogonalLoop=1;jettySize=auto;html=1;exitX=1;exitY=0.3333333333333333;exitDx=0;exitDy=0;exitPerimeter=0;entryX=0;entryY=0;entryDx=0;entryDy=0;strokeWidth=2;endArrow=none;endFill=0;" edge="1" parent="1" source="zukYgAwYILHTxyN00kDu-4" target="zukYgAwYILHTxyN00kDu-56">
          <mxGeometry relative="1" as="geometry" />
        </mxCell>
        <mxCell id="s4xfgdplAtvyBz_P0e0U-5" style="rounded=0;orthogonalLoop=1;jettySize=auto;html=1;exitX=1;exitY=0.3333333333333333;exitDx=0;exitDy=0;exitPerimeter=0;entryX=0;entryY=0;entryDx=0;entryDy=0;strokeWidth=2;endArrow=none;endFill=0;" edge="1" parent="1" source="zukYgAwYILHTxyN00kDu-4" target="zukYgAwYILHTxyN00kDu-53">
          <mxGeometry relative="1" as="geometry" />
        </mxCell>
        <mxCell id="zukYgAwYILHTxyN00kDu-4" value="User" style="shape=umlActor;verticalLabelPosition=bottom;verticalAlign=top;html=1;align=center;strokeWidth=2;fontSize=23;fontStyle=1" parent="1" vertex="1">
          <mxGeometry x="80" y="871" width="130" height="220" as="geometry" />
        </mxCell>
        <mxCell id="zukYgAwYILHTxyN00kDu-17" style="rounded=0;orthogonalLoop=1;jettySize=auto;html=1;exitX=1;exitY=0.5;exitDx=0;exitDy=0;entryX=0;entryY=0.5;entryDx=0;entryDy=0;dashed=1;strokeWidth=4;" parent="1" source="zukYgAwYILHTxyN00kDu-8" target="zukYgAwYILHTxyN00kDu-15" edge="1">
          <mxGeometry relative="1" as="geometry" />
        </mxCell>
        <mxCell id="zukYgAwYILHTxyN00kDu-19" value="&amp;lt;&amp;lt;include&amp;gt;&amp;gt;" style="edgeLabel;html=1;align=center;verticalAlign=middle;resizable=0;points=[];fontSize=22;" parent="zukYgAwYILHTxyN00kDu-17" vertex="1" connectable="0">
          <mxGeometry x="-0.0923" y="-4" relative="1" as="geometry">
            <mxPoint x="18" as="offset" />
          </mxGeometry>
        </mxCell>
        <mxCell id="zukYgAwYILHTxyN00kDu-22" style="rounded=0;orthogonalLoop=1;jettySize=auto;html=1;exitX=1;exitY=0.5;exitDx=0;exitDy=0;entryX=0;entryY=0.5;entryDx=0;entryDy=0;dashed=1;strokeWidth=4;" parent="1" source="zukYgAwYILHTxyN00kDu-8" target="zukYgAwYILHTxyN00kDu-14" edge="1">
          <mxGeometry relative="1" as="geometry" />
        </mxCell>
        <mxCell id="zukYgAwYILHTxyN00kDu-24" value="&amp;lt;&amp;lt;include&amp;gt;&amp;gt;" style="edgeLabel;html=1;align=center;verticalAlign=middle;resizable=0;points=[];fontSize=22;" parent="zukYgAwYILHTxyN00kDu-22" vertex="1" connectable="0">
          <mxGeometry x="0.1985" y="2" relative="1" as="geometry">
            <mxPoint as="offset" />
          </mxGeometry>
        </mxCell>
        <mxCell id="zukYgAwYILHTxyN00kDu-8" value="&lt;font style=&quot;font-size: 22px;&quot;&gt;Asks Trust&lt;/font&gt;" style="ellipse;whiteSpace=wrap;html=1;strokeWidth=2;" parent="1" vertex="1">
          <mxGeometry x="520" y="282" width="280" height="80" as="geometry" />
        </mxCell>
        <mxCell id="zukYgAwYILHTxyN00kDu-14" value="&lt;font style=&quot;font-size: 22px;&quot;&gt;Send ETH Address&lt;/font&gt;" style="ellipse;whiteSpace=wrap;html=1;strokeWidth=2;" parent="1" vertex="1">
          <mxGeometry x="920" y="204" width="280" height="80" as="geometry" />
        </mxCell>
        <mxCell id="zukYgAwYILHTxyN00kDu-15" value="&lt;font style=&quot;font-size: 22px;&quot;&gt;Send minimum signers&lt;/font&gt;" style="ellipse;whiteSpace=wrap;html=1;strokeWidth=2;" parent="1" vertex="1">
          <mxGeometry x="920" y="362" width="280" height="80" as="geometry" />
        </mxCell>
        <mxCell id="zukYgAwYILHTxyN00kDu-25" value="&lt;font style=&quot;font-size: 22px;&quot;&gt;Arrange Random&lt;/font&gt;" style="ellipse;whiteSpace=wrap;html=1;strokeWidth=2;" parent="1" vertex="1">
          <mxGeometry x="520" y="522" width="280" height="80" as="geometry" />
        </mxCell>
        <mxCell id="zukYgAwYILHTxyN00kDu-28" value="&lt;font style=&quot;font-size: 22px;&quot;&gt;Notifies Trust&lt;/font&gt;" style="ellipse;whiteSpace=wrap;html=1;strokeWidth=2;" parent="1" vertex="1">
          <mxGeometry x="520" y="722" width="280" height="80" as="geometry" />
        </mxCell>
        <mxCell id="zukYgAwYILHTxyN00kDu-46" value="&lt;font style=&quot;font-size: 22px;&quot;&gt;Invoke Smart Contract&lt;/font&gt;" style="ellipse;whiteSpace=wrap;html=1;strokeWidth=2;" parent="1" vertex="1">
          <mxGeometry x="880" y="1200" width="280" height="80" as="geometry" />
        </mxCell>
        <mxCell id="zukYgAwYILHTxyN00kDu-51" value="&lt;span style=&quot;font-size: 22px;&quot;&gt;Checks Random&lt;/span&gt;" style="ellipse;whiteSpace=wrap;html=1;strokeWidth=2;" parent="1" vertex="1">
          <mxGeometry x="880" y="1080" width="280" height="80" as="geometry" />
        </mxCell>
        <mxCell id="zukYgAwYILHTxyN00kDu-53" value="&lt;font style=&quot;font-size: 22px;&quot;&gt;Checks Trust&lt;/font&gt;" style="ellipse;whiteSpace=wrap;html=1;strokeWidth=2;" parent="1" vertex="1">
          <mxGeometry x="480" y="1540" width="280" height="80" as="geometry" />
        </mxCell>
        <mxCell id="zukYgAwYILHTxyN00kDu-54" value="&lt;font style=&quot;font-size: 22px;&quot;&gt;Removes trust&lt;/font&gt;" style="ellipse;whiteSpace=wrap;html=1;strokeWidth=2;" parent="1" vertex="1">
          <mxGeometry x="880" y="1320" width="280" height="80" as="geometry" />
        </mxCell>
        <mxCell id="zukYgAwYILHTxyN00kDu-56" value="&lt;span style=&quot;font-size: 22px;&quot;&gt;Gives Trust&lt;/span&gt;" style="ellipse;whiteSpace=wrap;html=1;strokeWidth=2;" parent="1" vertex="1">
          <mxGeometry x="701" y="1440" width="280" height="80" as="geometry" />
        </mxCell>
      </root>
    </mxGraphModel>
  </diagram>
</mxfile>
